<svg width="31" height="28" viewBox="0 0 31 28" fill="none" xmlns="http://www.w3.org/2000/svg">
<rect width="28" height="31" fill="white" transform="translate(31) rotate(90)"/>
<path d="M16.8438 21L15.2441 16.9131H10.0938L8.51172 21H7L12.0801 8.09766H13.3369L18.3906 21H16.8438ZM14.7783 15.5684L13.2842 11.5869C13.0908 11.083 12.8916 10.4648 12.6865 9.73242C12.5576 10.2949 12.373 10.9131 12.1328 11.5869L10.6211 15.5684H14.7783ZM17.3963 24.3838C16.8455 24.3838 16.4119 24.3047 16.0955 24.1465V22.8721C16.5115 22.9893 16.9451 23.0479 17.3963 23.0479C17.9763 23.0479 18.4158 22.8721 18.7146 22.5205C19.0193 22.1689 19.1717 21.6621 19.1717 21V8.15039H20.6658V20.877C20.6658 21.9902 20.3845 22.8516 19.822 23.4609C19.2595 24.0762 18.451 24.3838 17.3963 24.3838Z" fill="black"/>
</svg>
